<?xml version="1.0" encoding="UTF-8"?>
<svg width="19px" height="18px" viewBox="0 0 19 18" version="1.1" xmlns="http://www.w3.org/2000/svg" xmlns:xlink="http://www.w3.org/1999/xlink">
    <title>Gift Icon@2x</title>
    <g id="Gift-Icon" stroke="none" stroke-width="1" fill="none" fill-rule="evenodd">
        <g id="Icons-/-Miscellaneous-/-Gift-/-Base" transform="translate(2.000000, 2.000000)" fill="#222222">
            <path d="M1.21460962,13.9745271 L1.21460962,7.40078758 L0,7.40078758 L0,2.70525933 L3.2187155,2.70525933 C3.18835026,2.70525933 3.18835026,2.6739558 3.15798502,2.64265228 C2.82396737,2.2357065 2.85433261,1.32790437 3.40090694,0.858351547 C3.85619603,0.420284595 5.13045025,0.196785504 7.49704406,2.66649215 C9.86378052,0.196785504 11.1380347,0.420284595 11.5933238,0.858351547 C12.1398982,1.32790437 12.1702634,2.2357065 11.8362458,2.64265228 C11.8058805,2.6739558 11.8058805,2.70525933 11.7755153,2.70525933 L11.7755153,2.70525933 L14.9942308,2.70525933 L14.9942308,7.40078758 L13.7796211,7.40078758 L13.7796211,13.9745271 L1.21460962,13.9745271 Z M7.14751047,7.40078758 L1.82191443,7.40078758 L1.82191443,13.3484567 L7.14751047,13.3484567 L7.14751047,7.40078758 Z M13.1723163,7.40078758 L7.8467203,7.40078758 L7.8467203,13.3484567 L13.1723163,13.3484567 L13.1723163,7.40078758 Z M7.14751047,3.33132976 L0.560589056,3.33132976 L0.560589056,6.77471714 L7.14751047,6.77471714 L7.14751047,3.33132976 Z M14.4336417,3.33132976 L7.8467203,3.33132976 L7.8467203,6.77471714 L14.4336417,6.77471714 L14.4336417,3.33132976 Z M4.1904032,1.17138676 C4.00821175,1.17138676 3.85638555,1.23399381 3.76528983,1.32790437 C3.46163742,1.57833255 3.49200266,2.07918889 3.61346363,2.26701002 C3.82602031,2.54091584 4.08507377,2.64705434 4.28891231,2.6902801 L4.37259464,2.70525933 L6.70701831,2.70525933 C5.55313917,1.57833255 4.70661229,1.17138676 4.1904032,1.17138676 Z M10.8038276,1.17138676 C10.2876185,1.17138676 9.4410916,1.57833255 8.28721246,2.70525933 L8.28721246,2.70525933 L10.6216361,2.70525933 L10.7053185,2.6902801 C10.909157,2.64705434 11.1682105,2.54091584 11.3807671,2.26701002 C11.5022281,2.07918889 11.5325933,1.57833255 11.2289409,1.32790437 C11.1378452,1.23399381 10.986019,1.17138676 10.8038276,1.17138676 Z" id="Combined-Shape"></path>
        </g>
    </g>
</svg>