<svg width="317" height="44" viewBox="0 0 317 44" fill="none" xmlns="http://www.w3.org/2000/svg"><path d="M37.604 10.427c3.113 0 5.712 1.411 6.798 3.399v-1.794a.926.926 0 0 1 .96-.96h4.055a.942.942 0 0 1 .965.96v20.41a.948.948 0 0 1-.965.966h-4.056a.943.943 0 0 1-.96-.966v-1.76c-1.188 2.017-3.684 3.394-6.854 3.394-5.798 0-11.15-4.61-11.15-11.824 0-7.215 5.346-11.825 11.207-11.825zm.834 18.074c3.462 0 5.964-2.788 5.964-6.284s-2.502-6.249-5.964-6.249a6.091 6.091 0 0 0-6.02 6.22c0 3.502 2.627 6.313 6.02 6.313zM14.572 10.427c-3.17 0-5.712 1.411-7.014 3.399v-1.794a.931.931 0 0 0-.983-.96H2.577a.941.941 0 0 0-.96.96v29.864a.943.943 0 0 0 .96.96h4.072a.941.941 0 0 0 .96-.96v-.285l.063-10.705c1.348 2.016 4.135 3.107 6.855 3.107 5.895 0 11.081-4.615 11.081-11.824 0-7.21-5.146-11.762-11.036-11.762zm-.965 18.074c-3.427 0-6.027-2.788-6.027-6.284a6.05 6.05 0 0 1 6.027-6.277c3.462 0 5.958 2.787 5.958 6.249 0 3.461-2.496 6.312-5.958 6.312zM73.306 11.101h-4.359a1.194 1.194 0 0 0-1.188.966l-1.89 6.694-2.788 8.643-4.679-15.349a1.062 1.062 0 0 0-.988-.954h-4.741c-1.057 0-1.188.674-.96 1.445l6.758 19.868a1.251 1.251 0 0 0 1.188.96h1.6l-3.108 8.042c-.32.897-.063 1.44.834 1.44h4.358a1.188 1.188 0 0 0 1.189-.96l.285-1.057 2.725-7.426 6.695-20.792c.223-.971-.069-1.52-.931-1.52z" fill="#4A4AF4"/><path d="M113.84 10.718c.514 0 1.057.223 1.057 1.188v4a1.101 1.101 0 0 1-.686 1.11 1.1 1.1 0 0 1-.457.077h-1.142c-2.948 0-4.678 1.503-4.678 5.347v10.002a.937.937 0 0 1-.294.648.926.926 0 0 1-.666.249h-4.067a.943.943 0 0 1-.937-.96V11.935a.934.934 0 0 1 .274-.69.936.936 0 0 1 .691-.27h3.845a.932.932 0 0 1 .959.897v2.114a6.283 6.283 0 0 1 5.478-3.302c.207.03.415.04.623.034zM115.508 4.31a3.72 3.72 0 0 1 7.365-.705 3.721 3.721 0 0 1-3.617 4.452 3.748 3.748 0 0 1-3.748-3.748zm1.714 29a.967.967 0 0 1-.971-.965v-20.41a.93.93 0 0 1 .27-.69.934.934 0 0 1 .69-.27h3.998a.923.923 0 0 1 .96.96v20.347a.992.992 0 0 1-.96.966h-3.998l.011.063zM193.663 30.009l-1.411-2.285c-.388-.611-1.142-.611-1.794-.16a3.957 3.957 0 0 1-2.119.668c-1.057 0-2.559-.668-2.559-2.856V15.94h6.472a.98.98 0 0 0 .96-.96v-3.072a.965.965 0 0 0-.96-.966h-6.472V6.326a.92.92 0 0 0-.28-.696.934.934 0 0 0-.702-.264h-4.068a.917.917 0 0 0-.959.96v4.678h-3.079a.943.943 0 0 0-.943.977v3.073a.946.946 0 0 0 .96.966h3.079v10.75c0 5.032 3.747 7.02 7.397 7.02 2.565 0 4.839-.77 6.312-2.245a1.14 1.14 0 0 0 .166-1.536zM142.71 33.248v-2.954c-1.143 1.8-3.622 3.176-6.758 3.176-6.123 0-11.281-4.358-11.281-11.538 0-7.18 5.255-11.596 11.053-11.596 3.176 0 5.866 1.44 6.986 3.393v-1.794a.945.945 0 0 1 .96-.96h3.998a.929.929 0 0 1 .897.587.93.93 0 0 1 .063.373v21.473c0 6.18-4.57 10.476-11.996 10.476-5.958 0-10.316-3.782-11.373-8.043a.709.709 0 0 1 .445-.96h4.393c.571 0 .897.063 1.057.383.508 1.668 2.239 3.399 5.575 3.399 4.084.091 5.981-2.085 5.981-5.415zm-5.992-5.067c3.461 0 5.963-2.628 5.963-6.118s-2.502-6.124-5.963-6.124a5.907 5.907 0 0 0-5.958 6.124c0 3.49 2.53 6.118 5.958 6.118zM89.232 10.267c-3.176 0-5.804 1.445-6.924 3.302V8.862l-.062-6.318a.988.988 0 0 0-.966-.96h-3.998a.926.926 0 0 0-.96.96l.063 6.318v23.42a.943.943 0 0 0 .96.966h3.998a.948.948 0 0 0 .96-.966V30.49c1.28 2.022 3.684 3.398 6.855 3.398 5.866 0 11.156-4.615 11.156-11.824s-5.319-11.796-11.082-11.796zM88.3 28.404c-3.4 0-5.958-2.788-5.958-6.284s2.559-6.25 5.958-6.25a6.095 6.095 0 0 1 6.026 6.222c-.069 3.495-2.639 6.312-6.026 6.312zM165.496 10.267c-3.559 0-6.124 1.508-7.426 3.302V2.516a.93.93 0 0 0-.96-.897h-4.072a.94.94 0 0 0-.892.59.956.956 0 0 0-.068.37v29.703a.936.936 0 0 0 .588.897.945.945 0 0 0 .372.069h4.072a.938.938 0 0 0 .96-.903V21.583c0-3.461 2.239-5.803 5.575-5.803 3.462 0 5.416 2.284 5.416 5.803v10.762a.922.922 0 0 0 .601.843.928.928 0 0 0 .358.06h3.999a.928.928 0 0 0 .959-.903V19.978c.109-5.54-3.587-9.71-9.482-9.71z" fill="#2ABC7A"/><path d="M210.417 17.059h1.868v5.97h.155a3.684 3.684 0 0 1 3.507-2.086c3.062 0 5.175 2.434 5.175 6.25 0 3.815-2.113 6.283-5.141 6.283a3.752 3.752 0 0 1-3.536-2.12h-.228v1.863h-1.8v-16.16zm5.307 14.75c2.336 0 3.536-2.057 3.536-4.645 0-2.588-1.142-4.57-3.536-4.57-2.285 0-3.473 1.834-3.473 4.57s1.234 4.644 3.473 4.644zM223.373 37.52l.474-1.639c1.359.348 2.211.171 2.856-1.645l.366-.948-4.484-12.167h2.022l3.347 9.659h.126l3.347-9.66h2.034l-5.141 13.864c-.697 1.857-1.891 2.748-3.571 2.748a3.603 3.603 0 0 1-1.376-.212z" fill="#000"/><path fill-rule="evenodd" clip-rule="evenodd" d="M245.08 31.071c-.914 0-1.366-.445-1.366-1.182 0-1.371 1.531-1.84 4.325-2.137 0 1.834-1.234 3.32-2.959 3.32zm1.205-10.282a9.913 9.913 0 0 0-5.547 1.937l1.143 2.399a6.556 6.556 0 0 1 4.078-1.714c1.388 0 2.154.463 2.154 1.394 0 .634-.509.948-1.468 1.074-3.588.468-6.398 1.45-6.398 4.215 0 2.194 1.56 3.52 3.999 3.52a4.701 4.701 0 0 0 3.998-2.246v1.885h3.239v-7.9c0-3.261-2.285-4.57-5.221-4.57M278.822 21.12v12.128h3.468v-5.844c0-2.782 1.713-3.593 2.856-3.593a2.654 2.654 0 0 1 1.479.434l.634-3.204a3.996 3.996 0 0 0-1.553-.28 3.673 3.673 0 0 0-3.645 2.393V21.12h-3.239zM303.339 20.766a4.813 4.813 0 0 0-3.918 2.131 4.274 4.274 0 0 0-3.731-2.121 4.282 4.282 0 0 0-3.695 2.184v-1.84h-3.342v12.128h3.467V27.01c0-2.245 1.177-3.319 2.285-3.319.994 0 1.908.646 1.908 2.285v7.272h3.462V27.01c0-2.285 1.142-3.319 2.285-3.319.914 0 1.879.668 1.879 2.285v7.272h3.468v-8.38c0-2.725-1.834-4.102-4.05-4.102M270.38 21.12h-3.142v-1.228c0-1.605.92-2.067 1.714-2.067a3.431 3.431 0 0 1 1.548.388l1.074-2.445a5.948 5.948 0 0 0-3.056-.708c-2.217 0-4.742 1.25-4.742 5.14v.92h-5.255v-1.228c0-1.605.914-2.067 1.714-2.067a3.342 3.342 0 0 1 1.554.388l1.068-2.445a6.061 6.061 0 0 0-3.056-.708c-2.217 0-4.736 1.25-4.736 5.14v.92h-2.011v2.68h2.005v9.448h3.468V23.8h5.255v9.448h3.467V23.8h3.142l-.011-2.68zM272.447 33.248h3.467V21.12h-3.467v12.127z" fill="#060809"/><path fill-rule="evenodd" clip-rule="evenodd" d="M292.652 4.207c-9.362 0-17.708 6.5-20.073 14.851h3.393c1.977-6.226 8.689-11.687 16.68-11.687 9.711 0 18.096 7.392 18.096 18.902a23.615 23.615 0 0 1-.965 6.969h3.29l.035-.114c.545-2.248.81-4.554.788-6.866 0-12.836-9.351-22.073-21.267-22.073" fill="#4A4AF4"/></svg>