<svg width="19" height="19" viewBox="0 0 19 19" fill="none" xmlns="http://www.w3.org/2000/svg">
<path d="M13.9437 12.2833C15.0935 10.7142 15.6085 8.76883 15.3856 6.83637C15.1628 4.9039 14.2185 3.12684 12.7416 1.86072C11.2648 0.594597 9.36435 -0.0672176 7.42052 0.00768172C5.47669 0.0825811 3.63281 0.888671 2.25778 2.26468C0.882758 3.64069 0.0779886 5.48514 0.00448016 7.42903C-0.0690283 9.37292 0.594146 11.2729 1.86133 12.7488C3.1285 14.2247 4.90624 15.1678 6.83886 15.3893C8.77149 15.6107 10.7165 15.0944 12.2847 13.9434H12.2835C12.3192 13.9909 12.3572 14.036 12.3999 14.0799L16.9718 18.6518C17.1944 18.8746 17.4965 18.9999 17.8115 19C18.1265 19.0001 18.4287 18.8751 18.6515 18.6524C18.8743 18.4297 18.9996 18.1277 18.9997 17.8127C18.9998 17.4977 18.8748 17.1955 18.6521 16.9727L14.0802 12.4008C14.0378 12.3578 13.9921 12.3181 13.9437 12.2821V12.2833ZM14.25 7.7185C14.25 8.5762 14.0811 9.4255 13.7529 10.2179C13.4246 11.0103 12.9436 11.7303 12.3371 12.3368C11.7306 12.9433 11.0106 13.4244 10.2182 13.7526C9.42577 14.0808 8.57647 14.2498 7.71878 14.2498C6.86108 14.2498 6.01179 14.0808 5.21938 13.7526C4.42697 13.4244 3.70697 12.9433 3.10049 12.3368C2.494 11.7303 2.01292 11.0103 1.68469 10.2179C1.35646 9.4255 1.18753 8.5762 1.18753 7.7185C1.18753 5.98631 1.87564 4.32506 3.10049 3.10021C4.32533 1.87537 5.98658 1.18725 7.71878 1.18725C9.45097 1.18725 11.1122 1.87537 12.3371 3.10021C13.5619 4.32506 14.25 5.98631 14.25 7.7185V7.7185Z" fill="#737373"/>
</svg>
