<svg width="24" height="27" viewBox="0 0 24 27" fill="none" xmlns="http://www.w3.org/2000/svg">
<path d="M12 14C13.7087 13.958 15.1253 13.3747 16.25 12.25C17.3747 11.1253 17.958 9.70867 18 8C17.958 6.29133 17.3747 4.87467 16.25 3.75C15.1253 2.62533 13.7087 2.042 12 2C10.2913 2.042 8.87467 2.62533 7.75 3.75C6.62533 4.87467 6.042 6.29133 6 8C6.042 9.70867 6.62533 11.1253 7.75 12.25C8.87467 13.3747 10.2913 13.958 12 14ZM12 16C9.72933 15.9373 7.844 15.156 6.344 13.656C4.844 12.156 4.06267 10.2707 4 8C4.06267 5.72933 4.844 3.844 6.344 2.344C7.844 0.844 9.72933 0.0626667 12 0C14.2707 0.0626667 16.156 0.844 17.656 2.344C19.156 3.844 19.9373 5.72933 20 8C19.9373 10.2707 19.156 12.156 17.656 13.656C16.156 15.156 14.2707 15.9373 12 16ZM22 26V23C21.9793 22.146 21.6877 21.4377 21.125 20.875C20.5623 20.3123 19.854 20.0207 19 20H5C4.146 20.0207 3.43767 20.3123 2.875 20.875C2.31233 21.4377 2.02067 22.146 2 23V26C2 26.292 1.90633 26.5317 1.719 26.719C1.53167 26.9063 1.292 27 1 27C0.708 27 0.468333 26.9063 0.281 26.719C0.0936668 26.5317 0 26.292 0 26V23C0.042 21.5833 0.531667 20.4063 1.469 19.469C2.40633 18.5317 3.58333 18.042 5 18H19C20.4167 18.042 21.5937 18.5317 22.531 19.469C23.4683 20.4063 23.958 21.5833 24 23V26C24 26.292 23.9063 26.5317 23.719 26.719C23.5317 26.9063 23.292 27 23 27C22.708 27 22.4683 26.9063 22.281 26.719C22.0937 26.5317 22 26.292 22 26Z" fill="#222222"/>
</svg>
