<svg style="width: 210px;" id="Layer_1" data-name="Layer 1" xmlns="http://www.w3.org/2000/svg" viewBox="0 0 484.29 50.62"><path d="M738.56,474.47l7.92-1.8V427.16H736.26c-6.77,0-12.75,5-14.91,11.59h-.86V425h66.39v13.75H786c-2.16-6.62-8.13-11.59-14.9-11.59H760.74v45.51l7.92,1.8v1.15h-30.1Z" transform="translate(-720.49 -425)"></path><path d="M797.6,474.47l7.92-1.8V428l-7.92-1.87V425h30.1v1.15L819.78,428v19.81H850.6V428l-7.92-1.87V425h30.09v1.15L864.85,428v44.65l7.92,1.8v1.15H842.68v-1.15l7.92-1.8v-22.4H819.78v22.4l7.92,1.8v1.15H797.6Z" transform="translate(-720.49 -425)"></path><path d="M884,474.47l7.92-1.87V428.1l-7.92-2V425h56.81v16.63H940c-1.8-6.26-5.91-14.47-18.43-14.47l-.08-.07v.07H906.18v20.38h8.28c7.85,0,10.44-5.47,11.59-9.43h.87v20.95h-.87c-1.15-3.89-3.67-9.29-11.45-9.36h-8.42V473l4.82.5h12.32c14,0,18.64-9.5,20.8-16.63h1v18.79H884Z" transform="translate(-720.49 -425)"></path><path d="M990.49,474.47l7.92-1.8V428.1l-7.92-2V425h40.82c13.18,0,23.41,4,23.41,11.95,0,7.49-8.5,11.45-18.87,11.52,12.46-.07,23.62,4.47,23.62,13.76,0,6.77-7.71,13.39-23.33,13.39H990.49Zm38.52-27c7.06,0,12.82-1.88,12.82-10.23,0-8-5.62-10.3-15.27-10.3h-13.82v20.53Zm-11.45,26.35H1029c8,0,16.42-2.88,16.42-11.81,0-10.94-7.2-12.17-16.85-12.17h-15.84v23.48Zm45.22.65,6.63-1.8,26.35-42-1.37-2.38-8.78-2.16V425h22.46l27.87,47.24,8.71,2.16v1.15h-31.18l-.36-1.15,7.42-1.8-6.12-10.37h-34.49l-6.48,10.44,5.47,1.8-.36,1.15h-15.77Zm50-14.91L1097.7,434l-16,25.56ZM1132.41,425h31l.28,1.15-7.34,1.87,19.44,22.47L1194.12,428l-5.47-1.87L1189,425h15.77v1.15l-6.63,1.87-20.38,25v19.66l7.93,1.8v1.15h-30.53v-1.15l7.92-1.8v-19l-22-25.35-8.71-2.16Z" transform="translate(-720.49 -425)"></path></svg>